<svg class="icon" viewBox="0 0 1024 1024" xmlns="http://www.w3.org/2000/svg" width="200" height="200"><defs><style/></defs><path d="M280.832 718.336C144.896 686.336 42.667 548.821 42.667 384c0-188.501 133.717-341.333 298.666-341.333S640 195.499 640 384c0 164.821-102.23 302.379-238.165 334.336L426.667 768h-77.568c-12.8 44.587-9.515 74.752 7.338 91.563 40.448 40.448 20.822 89.514-44.97 138.837a21.333 21.333 0 01-25.6-34.133c48-36.011 56.832-58.07 40.362-74.496-27.733-27.734-34.09-68.694-21.205-121.771H256l24.832-49.664zm298.71.341C668.372 640.512 725.332 519.637 725.332 384c0-59.904-11.093-116.907-31.146-168.619a238.933 238.933 0 0131.146-2.048c141.398 0 256 124.16 256 277.334 0 130.73-83.498 240.341-195.84 269.653l25.174 50.347H736c0 10.965 2.816 21.888 8.405 33.109 20.054 40.107.64 78.933-49.92 112.64a21.333 21.333 0 11-23.637-35.499c34.773-23.168 43.819-41.258 35.413-58.026a115.968 115.968 0 01-12.928-52.224H640l25.173-50.347a245.76 245.76 0 01-85.632-41.643z"/></svg>