<?xml version="1.0" standalone="no"?><!DOCTYPE svg PUBLIC "-//W3C//DTD SVG 1.1//EN" "http://www.w3.org/Graphics/SVG/1.1/DTD/svg11.dtd"><svg t="1582106783529" class="icon" viewBox="0 0 1024 1024" version="1.1" xmlns="http://www.w3.org/2000/svg" p-id="2897" xmlns:xlink="http://www.w3.org/1999/xlink" width="200" height="200"><defs><style type="text/css"></style></defs><path d="M718.336 836.152889L550.343111 1004.088889a61.952 61.952 0 0 1-87.324444 0l-167.424-167.936H125.041778c-68.380444 0-124.017778-55.182222-124.017778-123.562667V124.586667C1.024 56.149333 56.149333 1.024 124.529778 1.024h773.461333c68.437333 0 124.074667 55.125333 124.074667 123.505778v588.060444a123.619556 123.619556 0 0 1-123.562667 123.562667h-180.167111z m-261.347556-358.968889v38.456889c-106.894222 11.662222-186.140444 56.092444-186.140444 134.485333h495.957333c0-78.392889-78.734222-122.88-186.083555-134.485333V477.297778c45.511111-33.848889 61.838222-105.642667 61.838222-167.310222 0-84.423111-55.751111-119.296-123.733333-119.296-67.982222 0-123.733333 34.360889-123.733334 118.784 0 62.179556 16.384 133.461333 61.895111 167.822222z" p-id="2898"></path></svg>