<?xml version="1.0" standalone="no"?><!DOCTYPE svg PUBLIC "-//W3C//DTD SVG 1.1//EN" "http://www.w3.org/Graphics/SVG/1.1/DTD/svg11.dtd"><svg t="1574600276497" class="icon" viewBox="0 0 1024 1024" version="1.1" xmlns="http://www.w3.org/2000/svg" p-id="1331" xmlns:xlink="http://www.w3.org/1999/xlink" width="200" height="200"><defs><style type="text/css"></style></defs><path d="M283.368727 23.272727h457.262546C820.037818 23.272727 884.363636 90.856727 884.363636 174.173091v675.653818c0 83.316364-64.325818 150.900364-143.732363 150.900364H283.368727C203.962182 1000.727273 139.636364 933.143273 139.636364 849.826909V174.173091C139.636364 90.856727 203.962182 23.272727 283.368727 23.272727zM279.272727 116.363636c-25.693091 0-46.545455 22.062545-46.545454 49.245091v692.782546c0 27.182545 20.852364 49.245091 46.545454 49.245091h465.454546c25.693091 0 46.545455-22.062545 46.545454-49.245091V165.608727c0-27.182545-20.852364-49.245091-46.545454-49.245091H279.272727z m46.545455 139.636364a46.545455 46.545455 0 1 1 0-93.090909 46.545455 46.545455 0 0 1 0 93.090909z m186.181818 0a46.545455 46.545455 0 1 1 0-93.090909 46.545455 46.545455 0 0 1 0 93.090909z m186.181818 0a46.545455 46.545455 0 1 1 0-93.090909 46.545455 46.545455 0 0 1 0 93.090909z m-372.363636 139.636364h279.272727a46.545455 46.545455 0 0 1 0 93.090909H325.818182a46.545455 46.545455 0 0 1 0-93.090909z m0 139.636363h372.363636a46.545455 46.545455 0 0 1 0 93.090909H325.818182a46.545455 46.545455 0 0 1 0-93.090909z" p-id="1332"></path></svg>