<svg class="icon" viewBox="0 0 1024 1024" xmlns="http://www.w3.org/2000/svg" width="200" height="200"><defs><style/></defs><path d="M283.369 23.273H740.63c79.407 0 143.733 67.584 143.733 150.9v675.654c0 83.316-64.326 150.9-143.733 150.9H283.37c-79.407 0-143.733-67.584-143.733-150.9V174.173c0-83.316 64.326-150.9 143.733-150.9zm-4.096 93.09c-25.693 0-46.546 22.063-46.546 49.246V858.39c0 27.183 20.853 49.245 46.546 49.245h465.454c25.693 0 46.546-22.062 46.546-49.245V165.61c0-27.183-20.853-49.245-46.546-49.245H279.273zM325.818 256a46.545 46.545 0 110-93.09 46.545 46.545 0 010 93.09zM512 256a46.545 46.545 0 110-93.09 46.545 46.545 0 010 93.09zm186.182 0a46.545 46.545 0 110-93.09 46.545 46.545 0 010 93.09zM325.818 395.636h279.273a46.545 46.545 0 010 93.091H325.818a46.545 46.545 0 010-93.09zm0 139.637h372.364a46.545 46.545 0 010 93.09H325.818a46.545 46.545 0 010-93.09z"/></svg>