<?xml version="1.0" standalone="no"?><!DOCTYPE svg PUBLIC "-//W3C//DTD SVG 1.1//EN" "http://www.w3.org/Graphics/SVG/1.1/DTD/svg11.dtd"><svg t="1562866280347" class="icon" viewBox="0 0 2203 1024" version="1.1" xmlns="http://www.w3.org/2000/svg" p-id="621" xmlns:xlink="http://www.w3.org/1999/xlink" width="430.2734375" height="200"><defs><style type="text/css"></style></defs><path d="M96.49014186 941.09066375v-40.84515656l7.93757532-3.92794313-7.93757532-6.28334625-0.0612675-40.8451575c20.60638219-17.461305 20.63361187-67.85061375 0.05446032-86.79595875l-0.06807563-25.52822344c15.643695-13.77162563 15.68454-32.51955281 0.09530531-40.8451575l-0.0204225-15.31693406c1.61338406-0.42887437 3.88029-0.30633844 4.73123063-1.34788969 20.23196813-24.47305687-0.45610406-53.16678 7.48827937-79.10345437a70.873155 70.873155 0 0 0-12.2807775-6.34461469l-0.0204225-51.05644687 14.77233188-12.76411125L96.40845186 517.32215844c-3.83263687-150.90243375 55.88979-273.90081656 168.19354969-371.33013188C364.87005468 58.99184094 484.40340749 22.70772688 615.57082218 34.00822063c115.55094938 9.93898781 215.31524625 57.37383094 298.99335844 140.45288062 111.96338344 111.14648062 227.37137531 218.814315 340.90048968 328.39506375 75.12105187 72.50015438 149.05078594 146.23927781 224.40329344 218.50116844a288.63911063 288.63911063 0 0 0 391.35787406 9.43523156c14.89486687-12.79814906 22.04957719-12.45777281 33.90828844 0.93943875 36.4679175 41.20595625 73.63701094 81.78561937 111.30305344 123.461295A456.79862344 456.79862344 0 0 1 1763.16316686 984.71329156c-153.76840219 24.643245-291.23277844-14.27538281-406.42973718-120.18687469-78.66777281-72.32315812-153.69351937-148.60829719-230.5981425-222.87160031-121.33053938-117.15071813-240.44182594-236.75895375-365.0604-350.30168344-110.27511656-100.47908719-284.75882062-93.69198281-393.76093032 17.4408825A281.886045 281.886045 0 0 0 284.43232499 512.81557531c-0.28591594 87.58563187 0.45610406 175.19168719-0.88497844 262.76370469-0.35399156 22.51248937 5.94297 28.49630438 28.55757281 28.07423719 81.62223937-1.50446344 163.29893812-0.87817125 244.94840813-0.51056438 79.28725781 0.35399156 150.8071275-20.36811844 209.99176031-75.46823531 7.42701094-6.92325375 13.15214062-8.35283437 21.05567907-0.30633844 38.13576188 38.76886219 76.29194625 77.53772344 115.31949374 115.38756938 11.763405 11.41622156 1.64742094 16.37210063-4.22066625 21.89981156a457.66998656 457.66998656 0 0 1-142.71978749 90.89409 480.02590219 480.02590219 0 0 1-185.49147376 36.07988906c-151.12708125-0.78967312-302.25416344-0.28591594-453.38124468-0.64671562-9.16973812-0.0204225-24.95639062 6.66456844-20.97398813-14.15965407 4.95587906-3.77136938 14.70425625-9.33992625 14.07115594-11.02819312a149.62942594 149.62942594 0 0 0-14.21411437-24.7045125z" p-id="622"></path><path d="M2130.4292053 678.50395625c-50.08297031-48.29259094-99.21288656-95.12156344-147.45782437-142.84913063a41.38975969 41.38975969 0 0 1-11.57279532-25.86859875 291.19193344 291.19193344 0 0 0-293.94217312-288.49615312c-22.1040375-0.02722969-44.31699562 1.28662219-66.28488281-0.45610406-21.61389563-1.71549656-29.38128281 3.9824025-28.89114188 27.59771062 1.64742094 79.03537875 0.1021125 158.14564125 1.02112969 237.21505875 0.22464844 18.93853781-3.30845813 26.91015094-24.67728281 26.03878688-44.14000031-1.80399469-88.40934281-0.537795-132.62422594-0.53098688-32.66251031 0-32.57401313 0-32.5059375-33.39772312q0.41525906-193.66050562 0.71479031-387.32101125c0.08169-58.28603906 0-58.408575 57.94566375-58.25880938 84.16144687 0.21103312 168.35012344-0.70798313 252.47072344 1.34108344a444.05493375 444.05493375 0 0 1 225.55376625 68.81047406c130.59558281 80.88021844 206.00255062 199.08610406 226.7178525 350.24041594a441.63826219 441.63826219 0 0 1-26.47446937 225.9349875zM96.48333468 762.39310156c20.57915156 18.945345 20.55192187 69.33465469-0.05446031 86.79595875zM96.42887437 593.90682781a70.873155 70.873155 0 0 1 12.28077749 6.33780657C100.76526843 626.194925 121.4601478 654.88864719 101.22137249 679.35489688c-0.85774875 1.04155125-3.11784656 0.91901625-4.73123063 1.34108249L96.42887437 593.90682781zM96.49014186 941.09066375a149.62942594 149.62942594 0 0 1 14.21411438 24.71132062c0.63310031 1.68145875-9.11527781 7.25001562-14.07115594 11.02819219l-0.13615125-35.73951281zM96.51056437 696.01972062c15.58923469 8.32560469 15.54838969 27.07353188-0.08849813 40.84515751zM96.40164374 517.32215844l14.77914 12.76411125-14.77233187 12.76411125zM96.49014186 890.03421781l7.93757532 6.28334625-7.93076813 3.921135z" p-id="623"></path></svg>