<svg class="icon" viewBox="0 0 2203 1024" xmlns="http://www.w3.org/2000/svg" width="430.273" height="200"><defs><style/></defs><path d="M96.49 941.09v-40.844l7.938-3.928-7.938-6.284-.061-40.845c20.606-17.461 20.633-67.85.054-86.796l-.068-25.528c15.644-13.772 15.685-32.52.096-40.845l-.02-15.317c1.613-.43 3.88-.307 4.73-1.348 20.232-24.473-.456-53.167 7.489-79.104a70.873 70.873 0 00-12.281-6.344l-.02-51.057 14.772-12.764-14.773-12.764c-3.832-150.902 55.89-273.9 168.194-371.33 100.268-87 219.801-123.284 350.969-111.984 115.55 9.94 215.315 57.374 298.993 140.453 111.964 111.147 227.372 218.814 340.9 328.395 75.122 72.5 149.051 146.24 224.404 218.501a288.64 288.64 0 00391.358 9.436c14.895-12.799 22.05-12.458 33.908.939 36.468 41.206 73.637 81.786 111.303 123.461a456.799 456.799 0 01-253.274 129.52c-153.768 24.644-291.233-14.275-406.43-120.187-78.667-72.323-153.693-148.608-230.598-222.871-121.33-117.15-240.442-236.76-365.06-350.302-110.275-100.479-284.759-93.692-393.761 17.441a281.886 281.886 0 00-82.882 204.022c-.286 87.585.456 175.191-.885 262.763-.354 22.513 5.943 28.497 28.558 28.075 81.622-1.505 163.299-.879 244.948-.511 79.288.354 150.807-20.368 209.992-75.468 7.427-6.924 13.152-8.353 21.056-.307 38.136 38.77 76.292 77.538 115.32 115.388 11.763 11.416 1.647 16.372-4.221 21.9a457.67 457.67 0 01-142.72 90.894 480.026 480.026 0 01-185.492 36.08c-151.127-.79-302.254-.286-453.38-.647-9.17-.02-24.957 6.665-20.975-14.16 4.956-3.771 14.704-9.34 14.071-11.028a149.63 149.63 0 00-14.214-24.704z"/><path d="M2130.43 678.504c-50.084-48.293-99.214-95.122-147.459-142.85a41.39 41.39 0 01-11.572-25.868 291.192 291.192 0 00-293.943-288.496c-22.104-.027-44.317 1.287-66.284-.456-21.614-1.716-29.382 3.982-28.892 27.598 1.648 79.035.103 158.145 1.022 237.215.224 18.938-3.309 26.91-24.678 26.039-44.14-1.804-88.41-.538-132.624-.531-32.663 0-32.574 0-32.506-33.398q.415-193.66.715-387.321c.082-58.286 0-58.409 57.946-58.259 84.161.211 168.35-.708 252.47 1.341a444.055 444.055 0 01225.554 68.81c130.596 80.88 206.003 199.087 226.718 350.241a441.638 441.638 0 01-26.475 225.935zM96.482 762.394c20.58 18.944 20.552 69.334-.054 86.795zm-.054-168.487a70.873 70.873 0 0112.28 6.338c-7.944 25.95 12.751 54.644-7.488 79.11-.857 1.041-3.117.919-4.73 1.341l-.062-86.79zm.061 347.184a149.63 149.63 0 0114.214 24.711c.633 1.681-9.115 7.25-14.07 11.028l-.137-35.74zm.02-245.071c15.59 8.325 15.549 27.073-.088 40.845zm-.108-178.698l14.779 12.764-14.773 12.764zm.088 372.712l7.938 6.284-7.931 3.92z"/></svg>