<svg class="icon" viewBox="0 0 1066 1024" xmlns="http://www.w3.org/2000/svg" width="208.203" height="200"><defs><style/></defs><path d="M754.786 1024v-43.664a109.149 109.149 0 01109.127-109.17h87.307a109.149 109.149 0 01109.127 109.17V1024H754.786zm152.791-185.577a98.25 98.25 0 110-196.498 98.25 98.25 0 010 196.498zM705.235 794.76a37.755 37.755 0 01-19.07-5.14l-152.92-88.31-152.94 88.31a38.182 38.182 0 01-38.182-66.168l152.92-88.31V458.504a38.182 38.182 0 1176.384 0v176.639l152.941 88.309a38.246 38.246 0 01-19.133 71.308zM372.817 338.432a109.149 109.149 0 01109.128-109.191h87.307a109.149 109.149 0 01109.127 109.191v43.643H372.817v-43.643zM525.61 196.498a98.25 98.25 0 110-196.498 98.25 98.25 0 010 196.498zM6.122 980.336a109.17 109.17 0 01109.128-109.17h87.306a109.149 109.149 0 01109.128 109.17V1024H6.122v-43.664zm152.791-141.913a98.228 98.228 0 01-98.227-98.249 98.25 98.25 0 1198.227 98.25z"/></svg>