<svg class="icon" viewBox="0 0 1024 1024" xmlns="http://www.w3.org/2000/svg" width="200" height="200"><defs><style/></defs><path d="M168.391 275.342h111.502c25.031 0 43.236-18.204 43.236-43.235v-118.33c0-15.928-9.102-20.48-20.48-9.101l-143.36 150.186c-11.378 11.378-6.827 20.48 9.102 20.48z"/><path d="M785.067 86.471H411.876c-22.756 0-43.236 18.205-43.236 43.236v145.635c0 25.031-18.204 43.236-43.236 43.236H179.77c-25.031 0-43.236 18.204-43.236 43.235V855.61c0 47.787 38.685 86.471 86.471 86.471h562.063c47.786 0 86.47-38.684 86.47-86.471V172.942c0-47.786-38.684-86.47-86.47-86.47zm-59.165 655.36H284.444c-13.653 0-22.755-9.102-22.755-22.755s9.102-22.756 22.755-22.756h441.458c13.654 0 22.756 9.102 22.756 22.756 0 11.377-11.378 22.755-22.756 22.755zm0-161.564H320.853c-13.653 0-22.755-9.103-22.755-22.756s9.102-22.755 22.755-22.755h402.774c13.653 0 22.755 9.102 22.755 22.755s-9.102 22.756-20.48 22.756zm0-163.84H566.613c-13.653 0-22.755-9.103-22.755-22.756s9.102-22.755 22.755-22.755h159.29c13.653 0 22.755 9.102 22.755 22.755s-11.378 22.756-22.756 22.756z"/></svg>