<?xml version="1.0" standalone="no"?><!DOCTYPE svg PUBLIC "-//W3C//DTD SVG 1.1//EN" "http://www.w3.org/Graphics/SVG/1.1/DTD/svg11.dtd"><svg t="1562993039284" class="icon" viewBox="0 0 1024 1024" version="1.1" xmlns="http://www.w3.org/2000/svg" p-id="4027" xmlns:xlink="http://www.w3.org/1999/xlink" width="200" height="200"><defs><style type="text/css"></style></defs><path d="M896 170.666667H128a85.333333 85.333333 0 0 0-85.333333 85.333333v512a85.333333 85.333333 0 0 0 85.333333 85.333333h768a85.333333 85.333333 0 0 0 85.333333-85.333333V256a85.333333 85.333333 0 0 0-85.333333-85.333333zM128 256h341.333333v512H128V256z m768 512h-384V256h384.128L896 768z m-42.666667-192c0-11.733333-9.6-21.333333-21.333333-21.333333h-42.666667c-11.733333 0-21.333333 9.6-21.333333 21.333333v128c0 11.733333 9.6 21.333333 21.333333 21.333333h42.666667c11.733333 0 21.333333-9.6 21.333333-21.333333v-128z m-128-256c0-11.733333-9.6-21.333333-21.333333-21.333333h-128c-11.733333 0-21.333333 9.6-21.333333 21.333333v213.333333c0 11.733333 9.6 21.333333 21.333333 21.333334h128c11.733333 0 21.333333-9.6 21.333333-21.333334v-213.333333z m64 106.666667h42.666667c11.733333 0 21.333333-9.6 21.333333-21.333334s-9.6-21.333333-21.333333-21.333333h-42.666667c-11.733333 0-21.333333 9.6-21.333333 21.333333s9.6 21.333333 21.333333 21.333334z m0 85.333333h42.666667c11.733333 0 21.333333-9.6 21.333333-21.333333s-9.6-21.333333-21.333333-21.333334h-42.666667c-11.733333 0-21.333333 9.6-21.333333 21.333334s9.6 21.333333 21.333333 21.333333z m-213.333333 128h128c11.733333 0 21.333333-9.6 21.333333-21.333333s-9.6-21.333333-21.333333-21.333334h-128c-11.733333 0-21.333333 9.6-21.333333 21.333334s9.6 21.333333 21.333333 21.333333z m128 42.666667h-128c-11.733333 0-21.333333 9.6-21.333333 21.333333s9.6 21.333333 21.333333 21.333333h128c11.733333 0 21.333333-9.6 21.333333-21.333333s-9.6-21.333333-21.333333-21.333333z m85.333333-341.333334h42.666667c11.733333 0 21.333333-9.6 21.333333-21.333333s-9.6-21.333333-21.333333-21.333333h-42.666667c-11.733333 0-21.333333 9.6-21.333333 21.333333s9.6 21.333333 21.333333 21.333333zM426.666667 320c0-11.733333-9.6-21.333333-21.333334-21.333333h-213.333333c-11.733333 0-21.333333 9.6-21.333333 21.333333v128c0 11.733333 9.6 21.333333 21.333333 21.333333h213.333333c11.733333 0 21.333333-9.6 21.333334-21.333333v-128zM405.376 597.333333h-213.333333c-11.690667 0-21.333333 9.6-21.333334 21.333334s9.642667 21.333333 21.333334 21.333333h213.333333c11.690667 0 21.290667-9.6 21.290667-21.333333s-9.6-21.333333-21.290667-21.333334z m0-85.333333h-213.333333c-11.690667 0-21.333333 9.6-21.333334 21.333333s9.642667 21.333333 21.333334 21.333334h213.333333c11.690667 0 21.290667-9.6 21.290667-21.333334s-9.6-21.333333-21.290667-21.333333z m0 170.666667h-213.333333c-11.690667 0-21.333333 9.6-21.333334 21.333333s9.642667 21.333333 21.333334 21.333333h213.333333c11.690667 0 21.290667-9.6 21.290667-21.333333s-9.6-21.333333-21.290667-21.333333z" p-id="4028"></path></svg>