<?xml version="1.0" standalone="no"?><!DOCTYPE svg PUBLIC "-//W3C//DTD SVG 1.1//EN" "http://www.w3.org/Graphics/SVG/1.1/DTD/svg11.dtd"><svg t="1570585492540" class="icon" viewBox="0 0 1024 1024" version="1.1" xmlns="http://www.w3.org/2000/svg" p-id="1982" xmlns:xlink="http://www.w3.org/1999/xlink" width="200" height="200"><defs><style type="text/css"></style></defs><path d="M575.89333334 899.73333334c-13.86666667 0-27.84000001-3.73333334-40.42666667-11.30666668l-212.90666667-126.93333332c-0.96000001-0.64-2.02666668-1.28-2.88000001-1.92-8.53333333-4.37333334-17.49333333-6.61333333-26.66666665-6.61333333H144.95999999c-59.73333333 0-108.37333333-53.97333333-108.37333331-120.21333334V392.85333332c0-66.34666667 48.64-120.21333334 108.37333333-120.21333332h148.05333333c10.34666668 0 20.80000001-2.98666667 30.18666666-8.64000001l212.90666667-126.93333331c24.64000001-14.72 54.29333334-15.04000001 79.25333334-0.96000001 27.94666667 15.89333334 45.22666667 47.14666667 45.22666665 81.60000001l-0.31999999 139.30666666-0.32000001 450.77333332c0 34.45333334-17.38666668 65.70666667-45.22666667 81.60000001-12.26666668 6.93333334-25.49333334 10.34666668-38.82666667 10.34666667zM863.36 763.30666667c-9.6 0-19.2-3.62666667-26.56000001-10.98666668-14.61333334-14.61333334-14.61333334-38.4 2e-8-53.01333332 49.81333334-49.81333334 77.22666667-116.05333333 77.22666667-186.56000001s-27.41333334-136.74666667-77.22666667-186.55999999c-14.61333334-14.61333334-14.61333334-38.4 0-53.01333335 14.61333334-14.61333334 38.4-14.61333334 53.01333332 0 64 64 99.2 149.01333334 99.2 239.57333336s-35.2 175.57333333-99.2 239.57333331c-7.25333333 7.36000001-16.85333333 10.98666668-26.45333333 10.98666668z" p-id="1983"></path><path d="M736.96000001 676.69333333c-9.6 0-19.2-3.62666667-26.56000001-10.98666667-14.61333334-14.61333334-14.61333334-38.4 0-53.01333333 55.14666668-55.14666668 55.14666668-144.85333333 0-200.00000001-14.61333334-14.61333334-14.61333334-38.4 0-53.01333332 14.61333334-14.61333334 38.4-14.61333334 53.01333334 0 84.37333334 84.37333334 84.37333334 221.65333333 0 306.02666668-7.25333333 7.36000001-16.85333333 10.98666668-26.45333333 10.98666665z" p-id="1984"></path></svg>