<svg class="icon" viewBox="0 0 1024 1024" xmlns="http://www.w3.org/2000/svg" width="200" height="200"><defs><style/></defs><path d="M575.893 899.733c-13.866 0-27.84-3.733-40.426-11.306L322.56 761.493c-.96-.64-2.027-1.28-2.88-1.92-8.533-4.373-17.493-6.613-26.667-6.613H144.96c-59.733 0-108.373-53.973-108.373-120.213V392.853c0-66.346 48.64-120.213 108.373-120.213h148.053c10.347 0 20.8-2.987 30.187-8.64l212.907-126.933c24.64-14.72 54.293-15.04 79.253-.96 27.947 15.893 45.227 47.146 45.227 81.6l-.32 139.306-.32 450.774c0 34.453-17.387 65.706-45.227 81.6-12.267 6.933-25.493 10.346-38.827 10.346zM863.36 763.307c-9.6 0-19.2-3.627-26.56-10.987-14.613-14.613-14.613-38.4 0-53.013 49.813-49.814 77.227-116.054 77.227-186.56S886.613 376 836.8 326.187c-14.613-14.614-14.613-38.4 0-53.014 14.613-14.613 38.4-14.613 53.013 0 64 64 99.2 149.014 99.2 239.574s-35.2 175.573-99.2 239.573c-7.253 7.36-16.853 10.987-26.453 10.987z"/><path d="M736.96 676.693c-9.6 0-19.2-3.626-26.56-10.986-14.613-14.614-14.613-38.4 0-53.014 55.147-55.146 55.147-144.853 0-200-14.613-14.613-14.613-38.4 0-53.013s38.4-14.613 53.013 0c84.374 84.373 84.374 221.653 0 306.027-7.253 7.36-16.853 10.986-26.453 10.986z"/></svg>