<svg class="icon" viewBox="0 0 1024 1024" xmlns="http://www.w3.org/2000/svg" width="200" height="200"><defs><style/></defs><path d="M997.452 269.031v74.76c0 27.55-8.131 55.463-24.151 83.376-16.142 28.035-37.866 53.279-65.415 75.852-27.307 22.574-61.046 41.506-100.974 56.92-39.928 15.291-81.677 24.03-125.732 25.971-16.263 20.996-34.831 39.564-55.463 55.463-14.685 13.228-25 27.307-30.705 42.356-5.704 14.927-8.495 32.404-8.495 52.307 0 20.996 5.947 38.593 17.84 53.157 11.894 14.32 30.826 21.603 56.92 21.603 29.248 0 55.098 8.86 77.914 26.457 22.695 17.719 34.103 40.05 34.103 66.75v37.258c0 5.34-1.699 9.952-5.218 13.35-3.52 3.398-8.01 5.218-13.35 5.218H269.274c-5.34 0-9.952-1.699-13.35-5.218-3.52-3.52-5.218-8.01-5.218-13.35v-37.259c0-26.82 11.408-49.03 34.103-66.75s48.666-26.456 77.915-26.456c25.971 0 45.025-7.282 56.919-21.603 11.893-14.32 17.84-32.161 17.84-53.157 0-19.903-2.791-37.137-8.495-52.307-5.704-14.928-15.777-29.128-30.705-42.356-20.632-15.899-39.2-34.467-55.463-55.463-43.933-1.942-85.925-10.559-125.732-25.972-39.928-15.291-73.546-34.345-100.974-56.919-27.307-22.573-49.152-47.817-65.415-75.852-16.14-28.035-24.15-55.827-24.15-83.376v-74.76c0-15.534 5.34-28.884 16.262-39.685 10.922-10.923 24.151-16.263 39.685-16.263h168.21v-55.948c0-25.608 9.102-47.575 27.306-65.9s40.293-27.307 65.9-27.307h336.054c25.608 0 47.575 9.224 65.9 27.307 18.326 18.325 27.307 40.292 27.307 65.9v55.948H941.14c15.535 0 28.885 5.34 39.686 16.263 11.044 11.044 16.627 24.272 16.627 39.685zM293.789 504.233c-28.884-62.988-43.205-135.199-43.205-216.269H101.308v55.948c0 30.341 18.447 61.895 55.099 94.42 36.772 32.647 82.648 54.614 137.382 65.9zM922.692 343.79v-55.948H773.416c0 81.313-14.321 153.402-43.205 216.39 54.856-11.287 100.61-33.254 137.382-65.9 36.773-32.647 55.1-64.201 55.1-94.542z"/></svg>