<?xml version="1.0" standalone="no"?><!DOCTYPE svg PUBLIC "-//W3C//DTD SVG 1.1//EN" "http://www.w3.org/Graphics/SVG/1.1/DTD/svg11.dtd"><svg t="1570585478954" class="icon" viewBox="0 0 1024 1024" version="1.1" xmlns="http://www.w3.org/2000/svg" p-id="1624" xmlns:xlink="http://www.w3.org/1999/xlink" width="200" height="200"><defs><style type="text/css"></style></defs><path d="M997.45185185 269.03134815v74.75958518c0 27.54939259-8.13131852 55.46287408-24.15122963 83.37635556-16.14127408 28.03484445-37.86524445 53.27834075-65.41463704 75.85185186-27.30666667 22.57351111-61.04557037 41.50613333-100.97398518 56.91922962-39.92841482 15.29173333-81.67727408 24.02986667-125.73202963 25.97167408-16.26263703 20.99579259-34.83117037 39.56432592-55.46287407 55.46287407-14.68491852 13.22856297-25.00077037 27.30666667-30.70482963 42.35567407-5.70405925 14.92764445-8.49540741 32.40391111-8.49540742 52.30743704 0 20.99579259 5.94678518 38.59342222 17.84035557 53.15697778 11.89357037 14.32082963 30.82619259 21.60260741 56.91922963 21.60260741 29.24847408 0 55.09878518 8.8594963 77.91502222 26.45712593 22.69487408 17.71899259 34.10299259 40.04977778 34.10299258 66.74962962v37.25842963c0 5.33997037-1.69908148 9.95176297-5.2186074 13.34992592-3.51952592 3.39816297-8.00995555 5.21860741-13.34992593 5.21860741H269.27407408c-5.33997037 0-9.95176297-1.69908148-13.34992593-5.21860741-3.51952592-3.51952592-5.21860741-8.00995555-5.2186074-13.34992592V904.00237037c0-26.82121482 11.40811852-49.03063703 34.10299258-66.74962962s48.66654815-26.45712592 77.91502222-26.45712593c25.97167408 0 45.02565925-7.28177778 56.91922963-21.60260741 11.89357037-14.32082963 17.84035555-32.16118518 17.84035557-53.15697778 0-19.90352592-2.79134815-37.13706667-8.49540742-52.30743704-5.70405925-14.92764445-15.77718518-29.12711111-30.70482963-42.35567407-20.6317037-15.89854815-39.20023703-34.46708148-55.46287407-55.46287407-43.93339259-1.94180741-85.92497778-10.55857778-125.73202963-25.97167408-39.92841482-15.29173333-73.54595555-34.34571852-100.97398518-56.91922962-27.30666667-22.57351111-49.152-47.81700741-65.41463704-75.85185186-16.14127408-28.03484445-24.15122963-55.82696297-24.15122963-83.37635556v-74.75958518c0-15.53445925 5.33997037-28.88438518 16.26263703-39.6856889 10.92266667-10.92266667 24.15122963-16.26263703 39.6856889-16.26263703h168.20906667v-55.94832592c0-25.60758518 9.10222222-47.57428148 27.30666666-65.90008889s40.2925037-27.30666667 65.90008889-27.30666666h336.05404445c25.60758518 0 47.57428148 9.22358518 65.90008888 27.30666666 18.32580741 18.32580741 27.30666667 40.2925037 27.30666667 65.90008889v55.94832592h167.96634073c15.53445925 0 28.88438518 5.33997037 39.68568889 16.26263703 11.04402963 11.04402963 16.62672592 24.27259259 16.62672593 39.6856889zM293.78939259 504.23277037c-28.88438518-62.98737778-43.20521482-135.19834075-43.20521481-216.2688h-149.27644445v55.94832593c0 30.34074075 18.44717037 61.89511111 55.09878519 94.42038518 36.77297778 32.64663703 82.64817778 54.61333333 137.38287407 65.90008889z m628.90287408-160.44183704v-55.94832592h-149.27644445c0 81.31318518-14.32082963 153.40278518-43.20521481 216.39016296 54.85605925-11.28675555 100.6098963-33.25345185 137.38287407-65.90008889 36.77297778-32.64663703 55.09878518-64.20100741 55.09878519-94.54174815z" p-id="1625"></path></svg>