<svg class="icon" viewBox="0 0 1024 1024" xmlns="http://www.w3.org/2000/svg" width="200" height="200"><defs><style/></defs><path d="M337.681 921.293v-563.44h4.437L497.46 164.763c31.71-34.816 88.747-37.99 123.631-6.315 19.012 18.978 31.71 44.305 28.536 72.806l-6.35 126.635h237.74a94.55 94.55 0 0176.083 37.99c15.838 22.153 19.012 53.829 12.663 79.121L868.318 810.53c-15.838 63.317-69.735 107.69-136.295 110.797H337.681zm-57.07 0h-81.17a103.287 103.287 0 01-98.27-53.828c-9.489-18.979-15.838-37.957-15.838-56.969V471.791c0-41.165 22.187-79.121 57.071-98.133 19.013-9.49 38.025-12.664 57.071-15.838h81.17v563.473z"/></svg>