<?xml version="1.0" standalone="no"?><!DOCTYPE svg PUBLIC "-//W3C//DTD SVG 1.1//EN" "http://www.w3.org/Graphics/SVG/1.1/DTD/svg11.dtd"><svg t="1570198415883" class="icon" viewBox="0 0 1024 1024" version="1.1" xmlns="http://www.w3.org/2000/svg" p-id="5365" xmlns:xlink="http://www.w3.org/1999/xlink" width="200" height="200"><defs><style type="text/css"></style></defs><path d="M337.681067 921.2928V357.853867h4.437333l155.3408-193.092267c31.709867-34.816 88.746667-37.9904 123.630933-6.314667 19.012267 18.978133 31.709867 44.305067 28.535467 72.8064l-6.3488 126.634667h237.738667a94.549333 94.549333 0 0 1 76.0832 37.9904c15.837867 22.152533 19.012267 53.828267 12.663466 79.121067l-101.444266 335.530666c-15.837867 63.317333-69.7344 107.690667-136.2944 110.7968H337.681067z m-57.070934 0H199.441067a103.287467 103.287467 0 0 1-98.269867-53.828267c-9.489067-18.978133-15.837867-37.956267-15.837867-56.968533v-338.705067c0-41.1648 22.186667-79.121067 57.070934-98.133333 19.012267-9.489067 38.024533-12.663467 57.070933-15.837867h81.169067v563.473067z" p-id="5366"></path></svg>