<svg class="icon" viewBox="0 0 1024 1024" xmlns="http://www.w3.org/2000/svg" width="200" height="200"><defs><style/></defs><path d="M583.68 450.56H460.8c-33.792 0-61.44 27.648-61.44 61.44v92.16c0 11.264 5.12 21.504 12.288 28.672 7.168 7.168 17.408 12.288 28.672 12.288v92.16c0 33.792 27.648 61.44 61.44 61.44h40.96c33.792 0 61.44-27.648 61.44-61.44v-92.16c11.264 0 21.504-4.096 28.672-12.288 7.168-7.168 12.288-17.408 12.288-28.672V512c0-33.792-27.648-61.44-61.44-61.44zM450.56 337.92a71.68 71.68 0 10143.36 0 71.68 71.68 0 10-143.36 0zM374.784 683.008c-2.048-2.048-5.12-4.096-7.168-6.144-19.456-20.48-30.72-46.08-30.72-72.704V512c0-32.768 13.312-63.488 34.816-84.992 6.144-6.144 1.024-17.408-7.168-17.408H266.24c-33.792 0-61.44 27.648-61.44 61.44v92.16c0 11.264 5.12 21.504 12.288 28.672 7.168 7.168 17.408 12.288 28.672 12.288v92.16c0 33.792 27.648 61.44 61.44 61.44h40.96c9.216 0 17.408-2.048 24.576-5.12 4.096-2.048 6.144-5.12 6.144-9.216V691.2c0-3.072-1.024-6.144-4.096-8.192zM256 296.96a71.68 71.68 0 10143.36 0 71.68 71.68 0 10-143.36 0zM778.24 409.6h-98.304c-9.216 0-13.312 10.24-7.168 17.408 21.504 22.528 34.816 52.224 34.816 84.992v92.16c0 26.624-10.24 52.224-30.72 72.704-2.048 2.048-4.096 4.096-7.168 6.144-2.048 2.048-4.096 5.12-4.096 8.192v52.224c0 4.096 2.048 8.192 6.144 9.216 7.168 3.072 15.36 5.12 24.576 5.12h40.96c33.792 0 61.44-27.648 61.44-61.44v-92.16c11.264 0 21.504-4.096 28.672-12.288 7.168-7.168 12.288-17.408 12.288-28.672v-92.16c0-33.792-27.648-61.44-61.44-61.44zM645.1199999999999 296.96a71.68 71.68 0 10143.36 0 71.68 71.68 0 10-143.36 0z"/></svg>