<?xml version="1.0" standalone="no"?><!DOCTYPE svg PUBLIC "-//W3C//DTD SVG 1.1//EN" "http://www.w3.org/Graphics/SVG/1.1/DTD/svg11.dtd"><svg t="1571197016104" class="icon" viewBox="0 0 1024 1024" version="1.1" xmlns="http://www.w3.org/2000/svg" p-id="2682" xmlns:xlink="http://www.w3.org/1999/xlink" width="200" height="200"><defs><style type="text/css"></style></defs><path d="M583.68 450.56H460.8c-33.792 0-61.44 27.648-61.44 61.44v92.16c0 11.264 5.12 21.504 12.288 28.672 7.168 7.168 17.408 12.288 28.672 12.288v92.16c0 33.792 27.648 61.44 61.44 61.44h40.96c33.792 0 61.44-27.648 61.44-61.44v-92.16c11.264 0 21.504-4.096 28.672-12.288 7.168-7.168 12.288-17.408 12.288-28.672v-92.16c0-33.792-27.648-61.44-61.44-61.44z" p-id="2683"></path><path d="M522.24 337.92m-71.68 0a71.68 71.68 0 1 0 143.36 0 71.68 71.68 0 1 0-143.36 0Z" p-id="2684"></path><path d="M374.784 683.008c-2.048-2.048-5.12-4.096-7.168-6.144-19.456-20.48-30.72-46.08-30.72-72.704v-92.16c0-32.768 13.312-63.488 34.816-84.992 6.144-6.144 1.024-17.408-7.168-17.408H266.24c-33.792 0-61.44 27.648-61.44 61.44v92.16c0 11.264 5.12 21.504 12.288 28.672 7.168 7.168 17.408 12.288 28.672 12.288v92.16c0 33.792 27.648 61.44 61.44 61.44h40.96c9.216 0 17.408-2.048 24.576-5.12 4.096-2.048 6.144-5.12 6.144-9.216v-52.224c0-3.072-1.024-6.144-4.096-8.192z" p-id="2685"></path><path d="M327.68 296.96m-71.68 0a71.68 71.68 0 1 0 143.36 0 71.68 71.68 0 1 0-143.36 0Z" p-id="2686"></path><path d="M778.24 409.6h-98.304c-9.216 0-13.312 10.24-7.168 17.408 21.504 22.528 34.816 52.224 34.816 84.992v92.16c0 26.624-10.24 52.224-30.72 72.704-2.048 2.048-4.096 4.096-7.168 6.144-2.048 2.048-4.096 5.12-4.096 8.192v52.224c0 4.096 2.048 8.192 6.144 9.216 7.168 3.072 15.36 5.12 24.576 5.12h40.96c33.792 0 61.44-27.648 61.44-61.44v-92.16c11.264 0 21.504-4.096 28.672-12.288 7.168-7.168 12.288-17.408 12.288-28.672v-92.16c0-33.792-27.648-61.44-61.44-61.44z" p-id="2687"></path><path d="M716.8 296.96m-71.68 0a71.68 71.68 0 1 0 143.36 0 71.68 71.68 0 1 0-143.36 0Z" p-id="2688"></path></svg>