<svg class="icon" viewBox="0 0 1024 1024" xmlns="http://www.w3.org/2000/svg" width="200" height="200"><defs><style/></defs><path d="M0 0h1024H0zM0 963.776h1024H0zM0 903.488h1024H0zM0 843.264h1024H0zM0 782.976h1024H0zM0 722.752h1024H0zM0 662.528h1024H0zM0 602.24h1024H0zM0 542.016h1024H0zM0 481.984h1024H0zM0 421.76h1024H0zM0 361.472h1024H0zM0 301.248h1024H0zM0 241.024h1024H0zM0 180.736h1024H0zM0 120.512h1024H0zM0 60.224h1024H0zM0 1024h1024H0zM0 0v1024V0zM963.776 0v1024V0zM903.488 0v1024V0zM843.264 0v1024V0zM782.976 0v1024V0zM722.752 0v1024V0zM662.528 0v1024V0zM602.24 0v1024V0zM542.016 0v1024V0zM481.984 0v1024V0zM421.76 0v1024V0zM361.472 0v1024V0zM301.248 0v1024V0zM241.024 0v1024V0zM180.736 0v1024V0zM120.512 0v1024V0zM60.224 0v1024V0zM1024 0v1024V0zM928.064 226.432H96c-17.664 0-32 14.4-32 32.256v506.624c0 17.856 14.336 32.384 32 32.384h832.064c17.536 0 31.936-14.528 31.936-32.384V258.688c0-17.856-14.4-32.256-31.936-32.256zM472 264.96h79.936v80.704H472V264.96zM228.352 756.992h-80v-80.64h80v80.64zm0-411.328h-80V264.96h80v80.704zm161.856 411.328h-79.936v-80.64h79.936v80.64zm0-411.328h-79.936V264.96h79.936v80.704zm161.728 411.328H472v-80.64h79.936v80.64zm-125.248-145.6V412.608L597.376 512l-170.688 99.392zm287.104 145.6h-79.936v-80.64h79.936v80.64zm0-411.328h-79.936V264.96h79.936v80.704zm161.856 411.328h-79.936v-80.64h79.936v80.64zm0-411.328h-79.936V264.96h79.936v80.704z"/></svg>