<svg class="icon" viewBox="0 0 1024 1024" xmlns="http://www.w3.org/2000/svg" width="200" height="200"><defs><style/></defs><path d="M779.185 306.255H972.17c25.836 57.501 41.275 120.517 43.953 186.998H794.624c-.945-70.262-6.617-132.175-15.439-186.998zM694.902 41.748c110.75 43.008 201.492 124.455 258.52 227.17H772.885c-20.48-104.605-51.515-179.121-77.982-227.17zm-161.634 227.17V7.877c39.857 1.733 78.454 8.034 115.318 18.432 28.042 47.104 64.118 125.873 86.961 242.61h-202.28zM287.665 717.745c-8.664-54.823-14.808-116.42-15.754-186.998h223.863v186.998H287.665zm-.472-411.49h208.58v186.998h-224.02c.946-70.262 6.775-132.175 15.44-186.998zM380.928 25.52c36.864-9.925 75.146-16.384 114.846-17.644v261.041h-202.28c22.843-117.524 59.235-196.45 87.434-243.397zM70.105 268.918C127.92 164.47 221.657 82.55 334.927 40.172c-26.624 48.05-58.132 122.88-78.927 228.746H70.105zM234.26 493.41H8.192c2.52-66.48 17.487-129.654 43.166-186.998h198.498c-8.822 54.666-14.651 116.579-15.596 186.998zm15.911 224.335H52.775C26.94 660.086 10.398 597.385 7.877 530.747h226.54c.945 70.577 7.09 132.175 15.754 186.998zm6.144 37.337c20.795 106.81 52.775 181.642 79.557 229.218-113.585-42.22-207.32-124.455-265.295-229.218h185.738zm239.459 0v261.041c-39.228-1.26-77.194-7.404-113.586-17.172-28.2-46.158-64.748-125.558-87.906-243.87h201.492zm238.985 0c-23 117.681-59.392 196.765-87.433 242.924-36.55 10.083-74.831 15.596-114.216 17.33V755.081h201.65zM533.268 530.747H757.13c-.945 70.577-6.932 132.175-15.754 186.998H533.268V530.747zm224.02-37.337h-224.02V306.255h208.58c8.665 54.823 14.494 116.736 15.44 187.155zm37.178 37.337h221.184c-2.52 66.639-18.904 129.34-44.74 186.998H778.713c8.822-54.823 14.966-116.42 15.753-186.998zm158.642 224.335C896.236 858.27 805.022 939.717 693.799 982.725c26.624-47.577 58.132-121.777 78.77-227.643h180.539zm0 0"/></svg>