<?xml version="1.0" standalone="no"?><!DOCTYPE svg PUBLIC "-//W3C//DTD SVG 1.1//EN" "http://www.w3.org/Graphics/SVG/1.1/DTD/svg11.dtd"><svg t="1562992973796" class="icon" viewBox="0 0 1024 1024" version="1.1" xmlns="http://www.w3.org/2000/svg" p-id="1974" xmlns:xlink="http://www.w3.org/1999/xlink" width="200" height="200"><defs><style type="text/css"></style></defs><path d="M779.185231 306.254769h192.984615c25.836308 57.501538 41.275077 120.516923 43.953231 186.998154H794.624c-0.945231-70.262154-6.616615-132.174769-15.438769-186.998154zM694.902154 41.747692c110.749538 43.008 201.491692 124.455385 258.520615 227.170462H772.883692c-20.48-104.605538-51.515077-179.121231-77.981538-227.170462zM533.267692 268.918154V7.876923c39.857231 1.732923 78.454154 8.034462 115.318154 18.432 28.041846 47.104 64.118154 125.873231 86.961231 242.609231H533.267692zM287.665231 717.745231c-8.664615-54.823385-14.808615-116.420923-15.753846-186.998154h223.862153v186.998154H287.665231z m-0.472616-411.490462h208.580923v186.998154H271.753846c0.945231-70.262154 6.774154-132.174769 15.438769-186.998154z m93.735385-280.733538C417.792 15.596308 456.073846 9.137231 495.773538 7.876923v261.041231H293.494154C316.337231 151.394462 352.728615 72.467692 380.928 25.521231zM70.104615 268.918154c57.816615-104.448 151.552-186.368 264.822154-228.745846-26.624 48.049231-58.131692 122.88-78.926769 228.745846h-185.895385z m164.155077 224.492308H8.192c2.520615-66.481231 17.486769-129.654154 43.165538-186.998154h198.498462c-8.822154 54.665846-14.651077 116.578462-15.596308 186.998154z m15.911385 224.334769H52.775385C26.939077 660.086154 10.397538 597.385846 7.876923 530.747077h226.540308c0.945231 70.577231 7.089231 132.174769 15.753846 186.998154z m6.144 37.336615c20.795077 106.811077 52.775385 181.641846 79.556923 229.218462-113.585231-42.220308-207.320615-124.455385-265.294769-229.218462h185.737846z m239.458461 0V1016.123077c-39.227077-1.260308-77.193846-7.404308-113.58523-17.171692-28.199385-46.158769-64.748308-125.558154-87.906462-243.869539h201.491692z m238.985847 0c-23.000615 117.681231-59.392 196.765538-87.433847 242.924308-36.548923 10.082462-74.830769 15.596308-114.215384 17.329231V755.081846h201.649231zM533.267692 530.747077h223.862154c-0.945231 70.577231-6.931692 132.174769-15.753846 186.998154H533.267692V530.747077z m224.019693-37.336615H533.267692V306.254769h208.580923c8.664615 54.823385 14.493538 116.736 15.43877 187.155693z m37.179077 37.336615h221.184c-2.520615 66.638769-18.904615 129.339077-44.740924 186.998154h-192.196923c8.822154-54.823385 14.966154-116.420923 15.753847-186.998154zM953.107692 755.081846c-56.871385 103.187692-148.086154 184.635077-259.308307 227.643077 26.624-47.576615 58.131692-121.777231 78.76923-227.643077H953.107692z m0 0" p-id="1975"></path></svg>