<svg class="icon" viewBox="0 0 1024 1024" xmlns="http://www.w3.org/2000/svg" width="200" height="200"><defs><style/></defs><path d="M890.88 122.88c0-10.24 5.12-25.6 15.36-30.72s25.6-5.12 35.84 0 15.36 15.36 15.36 30.72v757.76c0 76.8-61.44 138.24-138.24 138.24H189.44c-76.8 0-138.24-61.44-138.24-138.24v-742.4C51.2 61.44 112.64 0 189.44 0H691.2C768 0 829.44 61.44 829.44 138.24v593.92c0 25.6-20.48 46.08-46.08 46.08H209.92c-51.2 0-87.04 40.96-87.04 87.04s40.96 87.04 87.04 87.04h588.8c51.2 0 92.16-40.96 92.16-92.16V122.88zM220.16 829.44h568.32c20.48 0 35.84 15.36 35.84 35.84s-15.36 35.84-35.84 35.84H220.16c-20.48 0-35.84-15.36-35.84-35.84s20.48-35.84 35.84-35.84zM614.4 640c40.96 0 66.56-20.48 66.56-61.44V158.72h-307.2v51.2h256v358.4c0 15.36-10.24 25.6-25.6 25.6h-61.44l15.36 51.2h56.32zM384 261.12v51.2h215.04v-51.2H384zm15.36 97.28v179.2h179.2V358.4h-179.2zm133.12 133.12h-81.92v-87.04h81.92v87.04zM266.24 143.36L230.4 179.2c40.96 30.72 66.56 56.32 92.16 81.92l35.84-35.84c-25.6-25.6-56.32-51.2-92.16-81.92zm-71.68 158.72v51.2h76.8v199.68c0 10.24-5.12 20.48-15.36 30.72l20.48 46.08c35.84-25.6 66.56-51.2 97.28-87.04L358.4 486.4l-40.96 40.96V302.08H194.56z"/></svg>