<?xml version="1.0" standalone="no"?><!DOCTYPE svg PUBLIC "-//W3C//DTD SVG 1.1//EN" "http://www.w3.org/Graphics/SVG/1.1/DTD/svg11.dtd"><svg t="1570467400329" class="icon" viewBox="0 0 1024 1024" version="1.1" xmlns="http://www.w3.org/2000/svg" p-id="2470" data-darkreader-inline-fill="" xmlns:xlink="http://www.w3.org/1999/xlink" width="200" height="200"><defs><style type="text/css"></style></defs><path d="M890.88 122.88c0-10.24 5.12-25.6 15.36-30.72s25.6-5.12 35.84 0 15.36 15.36 15.36 30.72v757.76c0 76.8-61.44 138.24-138.24 138.24H189.44c-76.8 0-138.24-61.44-138.24-138.24V138.24C51.2 61.44 112.64 0 189.44 0h501.76c76.8 0 138.24 61.44 138.24 138.24v593.92c0 25.6-20.48 46.08-46.08 46.08H209.92c-51.2 0-87.04 40.96-87.04 87.04s40.96 87.04 87.04 87.04h588.8c51.2 0 92.16-40.96 92.16-92.16V122.88zM220.16 829.44h568.32c20.48 0 35.84 15.36 35.84 35.84s-15.36 35.84-35.84 35.84H220.16c-20.48 0-35.84-15.36-35.84-35.84s20.48-35.84 35.84-35.84z m394.24-189.44c40.96 0 66.56-20.48 66.56-61.44V158.72h-307.2v51.2h256v358.4c0 15.36-10.24 25.6-25.6 25.6h-61.44l15.36 51.2H614.4zM384 261.12v51.2h215.04v-51.2H384zM399.36 358.4v179.2h179.2V358.4H399.36z m133.12 133.12H450.56V404.48h81.92v87.04zM266.24 143.36l-35.84 35.84c40.96 30.72 66.56 56.32 92.16 81.92l35.84-35.84c-25.6-25.6-56.32-51.2-92.16-81.92zM194.56 302.08v51.2h76.8v199.68c0 10.24-5.12 20.48-15.36 30.72l20.48 46.08c35.84-25.6 66.56-51.2 97.28-87.04L358.4 486.4l-40.96 40.96V302.08H194.56z" p-id="2471"></path></svg>