<svg class="icon" viewBox="0 0 1024 1024" xmlns="http://www.w3.org/2000/svg" width="200" height="200"><defs><style/></defs><path d="M116.224 414.208a409.6 409.6 0 11297.984 493.568 407.04 407.04 0 01-297.984-493.568"/><path d="M537.6 498.688l-18.944 23.04L491.008 512l15.872 25.088-18.944 23.04 28.672-7.168 16.384 25.088v-29.696l29.184-7.68-27.648-10.752zm110.592-62.464h-29.696L609.28 409.6l-9.216 28.672h-29.696l24.064 17.408-9.216 28.672 24.064-17.92 24.064 17.92-9.216-28.672zm-48.64-109.568l4.608 31.744 13.824-26.624 29.696 4.608-21.504-20.992L640 288.768l-25.6 11.264-20.992-20.992 4.608 29.696-26.624 13.312zm-61.44-136.704l-18.944 23.04-28.16-11.264 16.384 25.6-19.456 22.528 29.184-7.168 15.872 25.088V238.08l30.208-7.168-27.648-11.264zM329.728 321.536l-28.16-86.528-28.16 86.528h-90.624L256 374.784 227.84 460.8l73.728-51.2 73.216 51.2-28.16-86.016 73.728-51.2z"/></svg>