<svg xmlns="http://www.w3.org/2000/svg" viewBox="0 0 302.40586 140.08322"><defs><style>.a{fill:#2363c3;}</style></defs><title>LOGO的副本</title><path class="a" d="M420.64755,198.38887c-16.254,16.14368-35.50431,22.388-57.31519,20.16652-13.32218-1.35694-25.68913-6.28963-35.67373-15.51074-13.25571-12.24213-26.05215-24.9809-39.07738-37.47346-11.12336-10.66845-22.313-21.26782-33.43062-31.94215-6.15315-5.90779-11.82169-12.39462-18.411-17.75748-11.748-9.56133-25.40309-12.23523-40.00571-8.18116-19.44607,5.39875-31.32393,22.77617-31.18864,42.722.08644,12.74235-.04454,25.48762-.23475,38.22925-.042,2.81335.94968,3.73342,3.67515,3.71744,14.49726-.0851,29.00176.20574,43.49051-.15928a36.18785,36.18785,0,0,0,23.75122-9.45111,20.67846,20.67846,0,0,1,2.28-1.6332L257.347,198.62674c-10.85969,12.07586-24.558,17.3179-39.50012,19.95052-2.67138.47066-5.48419.16967-8.23174.172q-32.61613.02736-65.23228.0314c-5.323.00136-5.32874-.0076-5.329-5.32624-.00128-22.12369-.36555-44.25559.13-66.36819.3358-14.98538,5.57577-28.25384,14.99794-40.37815C164.6304,93.26277,177.84538,84.83,194.00711,81.3059c20.41591-4.45166,39.59129-.90807,56.20735,12.43165,6.38172,5.12339,12.31747,10.82769,18.233,16.50028,8.48031,8.132,16.71442,16.52007,25.13132,24.71905,7.47526,7.28173,15.07762,14.43277,22.58487,21.68188,7.56168,7.30167,14.9992,14.73336,22.62671,21.96508,13.4802,12.78075,29.28877,17.07141,47.08637,11.46429,5.12821-1.61563,9.54307-5.44614,14.37351-8.1.91406-.5022,2.74873-.7784,3.30782-.25318C409.26315,187.07445,414.79218,192.62139,420.64755,198.38887Z" transform="translate(-138.92355 -78.90619)"/><path class="a" d="M437.3269,171.93206c-5.61341-5.43061-10.72416-11.11006-16.6053-15.82949-4.61932-3.70685-5.85611-8.0314-6.59414-13.57636-1.82981-13.74792-9.31546-23.97226-21.30535-31.06381-8.58913-5.08013-17.90611-5.48772-27.45032-5.33463-8.726.14-8.71273.04011-8.697,8.66849.01806,9.871-.07425,19.74323.05777,29.61256.03824,2.85726-.74394,4.033-3.79843,3.94167-6.491-.19418-12.99239-.10494-19.4884-.03132-2.31033.02617-3.36145-.72215-3.34829-3.21935q.166-31.48585.14445-62.9725c-.0016-2.48642.94567-3.12807,3.33579-3.10691,12.248.10843,24.51977-.41707,36.74094.16587,15.82935.75506,30.897,4.50544,43.52982,14.88036,15.19922,12.48263,24.96842,28.04274,27.04463,47.97342A62.60875,62.60875,0,0,1,437.3269,171.93206Z" transform="translate(-138.92355 -78.90619)"/></svg>